<svg width="921" height="524" viewBox="0 0 921 524" fill="none" xmlns="http://www.w3.org/2000/svg">
<g clip-path="url(#clip0_552_371)">
<path d="M500.93 0.000145408C500.93 0.000145408 364.098 131.174 336.234 423.094C307.039 316.304 289.512 248.31 126.204 162.339C197.69 187.431 234.766 198.247 325.702 291.168C361.637 175.165 406.606 77.9803 500.93 0.000145408Z" fill="#F47920"/>
<path d="M274.327 190.684C270.141 207.684 280.527 224.865 297.527 229.055C314.526 233.245 331.706 222.863 335.897 205.859C340.088 188.856 329.701 171.679 312.701 167.489C295.695 163.293 278.522 173.681 274.327 190.684Z" fill="#F47920"/>
<path fill-rule="evenodd" clip-rule="evenodd" d="M355.224 419.866C355.002 388.322 359.257 350.235 383.761 316.015C405.753 285.295 431.864 260.072 456.612 241.089C457.373 269.404 454.157 301.197 438.112 332.885C416.996 374.578 381.767 396.062 355.224 419.866Z" fill="#F47920"/>
<path fill-rule="evenodd" clip-rule="evenodd" d="M380.872 279.277C379.78 212.34 420.53 180.469 462.139 151.923C461.622 183.644 453.018 209.098 436.893 228.344C420.797 247.577 402.035 264.894 380.872 279.277Z" fill="#F47920"/>
<path fill-rule="evenodd" clip-rule="evenodd" d="M0 504.602C91.7709 393.494 199.229 395.435 303.388 403.952C258.313 455.223 209.475 485.506 157.683 495.61C105.942 505.715 52.775 509.16 0 504.602Z" fill="#F47920"/>
<path fill-rule="evenodd" clip-rule="evenodd" d="M281.764 326.403C252.868 322.397 218.58 313.427 190.526 286.437C165.344 262.216 145.738 234.962 131.665 209.775C157.685 212.849 186.351 220.037 213.205 238.955C248.552 263.824 263.517 298.933 281.764 326.403Z" fill="#F47920"/>
<path fill-rule="evenodd" clip-rule="evenodd" d="M295.691 377.873C182.004 407.182 112.095 354.453 47.5117 298.977C101.774 286.757 148.462 290.182 187.441 308.311C226.383 326.415 263.079 349.607 295.691 377.873Z" fill="#F47920"/>
<path d="M309.994 448.727L341.036 498.623H341.244V448.727H356.557V523.102H340.202L309.265 473.306H309.057V523.102H293.744V448.727H309.994Z" fill="#F47920"/>
<path d="M406.03 462.476H369.263V448.726H427.805V461.643L387.905 509.351H428.847V523.101H366.138V510.184L406.03 462.476Z" fill="#F47920"/>
<path d="M438.429 448.725H454.787V523.1H438.429V448.725Z" fill="#F47920"/>
<path d="M492.179 448.727L509.575 499.869H509.783L526.242 448.727H549.262V523.102H533.946V470.389H533.742L515.512 523.102H502.908L484.679 470.91H484.471V523.102H469.158V448.727H492.179Z" fill="#F47920"/>
<path d="M513.131 152.048L535.456 186.423H535.577V152.048H540.919V194.44H534.744L512.598 160.419H512.481V194.44H507.139V152.048H513.131Z" fill="#696A6C"/>
<path d="M579.334 152.048V156.798H555.701V170.277H577.73V175.027H555.701V189.69H579.513V194.44H550.063V152.048H579.334Z" fill="#696A6C"/>
<path d="M618.758 194.442L609.083 158.817H608.962L599.166 194.442H593.287L582.421 152.05H588.183L596.491 187.317H596.616L606.112 152.05H612.229L621.612 187.317H621.729L630.337 152.05H635.979L624.637 194.442H618.758Z" fill="#696A6C"/>
<path d="M680.867 156.797H656.521V152.047H687.517V156.797L661.213 189.693H688.23V194.443H654.505V189.693L680.867 156.797Z" fill="#696A6C"/>
<path d="M723.381 152.048V156.798H699.748V170.277H721.777V175.027H699.748V189.69H723.56V194.44H694.11V152.048H723.381Z" fill="#696A6C"/>
<path d="M752.059 176.927L744.997 157.151H744.876L737.692 176.927H752.059ZM748.142 152.047L764.705 194.443H758.472L753.842 181.677H735.909L731.159 194.443H725.401L741.905 152.047H748.142Z" fill="#696A6C"/>
<path d="M774.499 152.048V189.69H796.945V194.44H768.857V152.048H774.499Z" fill="#696A6C"/>
<path d="M823.543 176.927L816.481 157.151H816.36L809.176 176.927H823.543ZM819.626 152.047L836.189 194.443H829.956L825.326 181.677H807.393L802.643 194.443H796.885L813.389 152.047H819.626Z" fill="#696A6C"/>
<path d="M846.281 152.048L868.606 186.423H868.727V152.048H874.069V194.44H867.894L845.748 160.419H845.631V194.44H840.289V152.048H846.281Z" fill="#696A6C"/>
<path d="M898.234 189.692C898.863 189.692 899.659 189.642 900.609 189.542C901.559 189.446 902.567 189.208 903.638 188.829C904.705 188.454 905.767 187.913 906.813 187.2C907.863 186.483 908.801 185.517 909.634 184.292C910.467 183.063 911.151 181.529 911.684 179.688C912.213 177.846 912.484 175.621 912.484 173.008C912.484 170.475 912.234 168.208 911.742 166.208C911.247 164.213 910.438 162.508 909.305 161.104C908.18 159.7 906.726 158.629 904.942 157.896C903.163 157.163 900.963 156.796 898.351 156.796H888.851V189.692H898.234ZM897.759 152.05C904.288 152.05 909.317 153.713 912.838 157.038C916.363 160.358 918.122 165.429 918.122 172.238C918.122 175.8 917.73 178.954 916.934 181.704C916.147 184.458 914.917 186.775 913.255 188.654C911.592 190.533 909.476 191.967 906.901 192.958C904.33 193.946 901.28 194.442 897.759 194.442H883.213V152.05H897.759Z" fill="#696A6C"/>
<path d="M507.431 214.725H513.073V257.117H507.431V214.725Z" fill="#696A6C"/>
<path d="M528.507 214.723L550.832 249.098H550.953V214.723H556.295V257.115H550.12L527.974 223.094H527.857V257.115H522.515V214.723H528.507Z" fill="#696A6C"/>
<path d="M586.666 220.512C584.787 219.145 582.383 218.462 579.454 218.462C578.262 218.462 577.095 218.583 575.949 218.82C574.799 219.058 573.779 219.453 572.887 220.008C571.999 220.562 571.287 221.303 570.754 222.233C570.22 223.166 569.949 224.324 569.949 225.708C569.949 227.016 570.337 228.07 571.112 228.883C571.879 229.695 572.908 230.358 574.195 230.874C575.479 231.387 576.937 231.812 578.562 232.149C580.183 232.487 581.837 232.853 583.516 233.249C585.199 233.645 586.854 234.108 588.479 234.645C590.099 235.178 591.554 235.899 592.837 236.812C594.124 237.72 595.154 238.87 595.929 240.253C596.699 241.641 597.087 243.383 597.087 245.478C597.087 247.737 596.583 249.666 595.574 251.266C594.562 252.87 593.266 254.179 591.683 255.187C590.099 256.195 588.324 256.929 586.37 257.383C584.408 257.837 582.458 258.066 580.516 258.066C578.145 258.066 575.899 257.77 573.779 257.174C571.662 256.583 569.804 255.683 568.199 254.474C566.599 253.266 565.329 251.724 564.399 249.845C563.47 247.962 563.004 245.737 563.004 243.166H568.349C568.349 244.945 568.695 246.478 569.391 247.766C570.083 249.053 570.991 250.112 572.12 250.941C573.245 251.77 574.562 252.387 576.066 252.783C577.57 253.179 579.116 253.374 580.695 253.374C581.962 253.374 583.241 253.258 584.524 253.02C585.812 252.783 586.97 252.374 587.999 251.804C589.029 251.229 589.862 250.449 590.495 249.458C591.124 248.466 591.441 247.199 591.441 245.658C591.441 244.195 591.062 243.003 590.287 242.095C589.516 241.183 588.487 240.441 587.199 239.87C585.912 239.295 584.458 238.828 582.837 238.474C581.212 238.116 579.562 237.749 577.879 237.374C576.195 236.999 574.545 236.566 572.92 236.066C571.299 235.574 569.841 234.92 568.554 234.108C567.27 233.299 566.241 232.249 565.466 230.962C564.699 229.674 564.312 228.062 564.312 226.124C564.312 223.983 564.745 222.137 565.616 220.57C566.487 219.008 567.645 217.72 569.091 216.712C570.537 215.703 572.174 214.953 574.02 214.453C575.858 213.962 577.745 213.712 579.687 213.712C581.866 213.712 583.883 213.97 585.745 214.487C587.608 214.999 589.237 215.812 590.641 216.92C592.049 218.028 593.158 219.424 593.97 221.108C594.779 222.787 595.224 224.795 595.304 227.133H589.962C589.645 224.083 588.545 221.878 586.666 220.512Z" fill="#696A6C"/>
<path d="M599.398 219.472V214.722H633.302V219.472H619.169V257.118H613.531V219.472H599.398Z" fill="#696A6C"/>
<path d="M638.231 214.725H643.873V257.117H638.231V214.725Z" fill="#696A6C"/>
<path d="M648.857 219.472V214.722H682.761V219.472H668.628V257.118H662.99V219.472H648.857Z" fill="#696A6C"/>
<path d="M716.959 254C714.072 256.713 709.951 258.067 704.609 258.067C699.151 258.067 694.88 256.771 691.817 254.175C688.747 251.584 687.213 247.459 687.213 241.8V214.725H692.855V241.8C692.855 245.596 693.863 248.48 695.88 250.438C697.901 252.396 700.809 253.375 704.609 253.375C708.209 253.375 710.955 252.396 712.834 250.438C714.713 248.48 715.655 245.596 715.655 241.8V214.725H721.297V241.8C721.297 247.221 719.847 251.288 716.959 254Z" fill="#696A6C"/>
<path d="M725.806 219.472V214.722H759.71V219.472H745.577V257.118H739.939V219.472H725.806Z" fill="#696A6C"/>
<path d="M793.673 214.723V219.473H770.04V232.952H792.069V237.702H770.04V252.365H793.852V257.115H764.402V214.723H793.673Z" fill="#696A6C"/>
<path d="M821.285 242.242C821.839 244.321 822.71 246.192 823.898 247.855C825.085 249.517 826.606 250.851 828.473 251.863C830.331 252.871 832.543 253.376 835.118 253.376C837.693 253.376 839.91 252.871 841.768 251.863C843.627 250.851 845.156 249.517 846.343 247.855C847.531 246.192 848.398 244.321 848.956 242.242C849.506 240.163 849.785 238.059 849.785 235.917C849.785 233.784 849.506 231.676 848.956 229.596C848.398 227.517 847.531 225.646 846.343 223.984C845.156 222.321 843.627 220.988 841.768 219.976C839.91 218.967 837.693 218.463 835.118 218.463C832.543 218.463 830.331 218.967 828.473 219.976C826.606 220.988 825.085 222.321 823.898 223.984C822.71 225.646 821.839 227.517 821.285 229.596C820.731 231.676 820.456 233.784 820.456 235.917C820.456 238.059 820.731 240.163 821.285 242.242ZM816.089 227.576C816.939 224.905 818.218 222.538 819.918 220.48C821.623 218.426 823.739 216.78 826.273 215.555C828.806 214.325 831.756 213.713 835.118 213.713C838.485 213.713 841.431 214.325 843.964 215.555C846.502 216.78 848.618 218.426 850.318 220.48C852.023 222.538 853.298 224.905 854.152 227.576C855.002 230.251 855.423 233.03 855.423 235.917C855.423 238.809 855.002 241.588 854.152 244.263C853.298 246.934 852.023 249.301 850.318 251.359C848.618 253.417 846.502 255.051 843.964 256.255C841.431 257.463 838.485 258.067 835.118 258.067C831.756 258.067 828.806 257.463 826.273 256.255C823.739 255.051 821.623 253.417 819.918 251.359C818.218 249.301 816.939 246.934 816.089 244.263C815.239 241.588 814.81 238.809 814.81 235.917C814.81 233.03 815.239 230.251 816.089 227.576Z" fill="#696A6C"/>
<path d="M890.161 214.723V219.473H867.953V232.952H887.432V237.702H867.953V257.115H862.311V214.723H890.161Z" fill="#696A6C"/>
<path d="M515.031 273.055L528.394 308.68L541.81 273.055H549.527V315.451H544.185V280.18H544.069L530.827 315.451H526.019L512.777 280.18H512.66V315.451H507.31V273.055H515.031Z" fill="#696A6C"/>
<path d="M580.583 297.932L573.521 278.162H573.4L566.216 297.932H580.583ZM576.666 273.053L593.233 315.449H586.996L582.366 302.683H564.433L559.683 315.449H553.925L570.429 273.053H576.666Z" fill="#696A6C"/>
<path d="M603.324 273.055L625.649 307.434H625.77V273.055H631.116V315.451H624.937L602.791 281.426H602.674V315.451H597.332V273.055H603.324Z" fill="#696A6C"/>
<path d="M661.926 297.932L654.864 278.162H654.743L647.559 297.932H661.926ZM658.009 273.053L674.576 315.449H668.339L663.709 302.683H645.776L641.026 315.449H635.268L651.772 273.053H658.009Z" fill="#696A6C"/>
<path d="M704.264 314.946C701.81 315.913 699.335 316.4 696.843 316.4C693.672 316.4 690.843 315.817 688.352 314.65C685.856 313.479 683.739 311.908 681.997 309.929C680.256 307.95 678.931 305.675 678.018 303.1C677.106 300.529 676.652 297.854 676.652 295.083C676.652 291.996 677.081 289.058 677.931 286.267C678.781 283.475 680.047 281.033 681.731 278.933C683.41 276.837 685.51 275.162 688.027 273.917C690.539 272.671 693.477 272.046 696.843 272.046C699.139 272.046 701.306 272.312 703.343 272.846C705.385 273.383 707.202 274.225 708.806 275.371C710.41 276.521 711.756 277.975 712.843 279.733C713.931 281.496 714.672 283.625 715.072 286.121H709.427C709.152 284.496 708.639 283.1 707.885 281.933C707.131 280.767 706.202 279.804 705.093 279.054C703.989 278.3 702.731 277.737 701.327 277.358C699.918 276.983 698.427 276.796 696.843 276.796C694.268 276.796 692.06 277.312 690.222 278.342C688.377 279.371 686.877 280.725 685.71 282.408C684.543 284.092 683.681 286.008 683.127 288.167C682.572 290.325 682.297 292.533 682.297 294.787C682.297 297.004 682.61 299.133 683.243 301.171C683.877 303.208 684.806 305.008 686.035 306.575C687.26 308.138 688.777 309.388 690.577 310.317C692.377 311.246 694.464 311.708 696.843 311.708C699.06 311.708 701.018 311.354 702.718 310.642C704.422 309.929 705.856 308.95 707.022 307.7C708.189 306.454 709.072 304.992 709.668 303.308C710.26 301.625 710.518 299.817 710.435 297.875H696.897V293.125H715.485V315.45H711.922L710.435 310.167C708.777 312.383 706.718 313.975 704.264 314.946Z" fill="#696A6C"/>
<path d="M753.068 273.055V277.805H729.435V291.284H751.464V296.034H729.435V310.701H753.247V315.451H723.797V273.055H753.068Z" fill="#696A6C"/>
<path d="M767.912 273.055L781.275 308.68L794.691 273.055H802.408V315.451H797.066V280.18H796.95L783.708 315.451H778.9L765.658 280.18H765.541V315.451H760.191V273.055H767.912Z" fill="#696A6C"/>
<path d="M841.064 273.055V277.805H817.431V291.284H839.46V296.034H817.431V310.701H841.243V315.451H811.793V273.055H841.064Z" fill="#696A6C"/>
<path d="M854.008 273.055L876.333 307.434H876.454V273.055H881.8V315.451H875.621L853.475 281.426H853.358V315.451H848.016V273.055H854.008Z" fill="#696A6C"/>
<path d="M886.426 277.806V273.056H920.33V277.806H906.197V315.452H900.559V277.806H886.426Z" fill="#696A6C"/>
<path d="M512.834 335.557V373.199H535.28V377.949H507.192V335.557H512.834Z" fill="#696A6C"/>
<path d="M569.478 335.557V340.307H545.845V353.786H567.874V358.536H545.845V373.199H569.657V377.949H540.207V335.557H569.478Z" fill="#696A6C"/>
<path d="M598.157 360.435L591.095 340.66H590.974L583.79 360.435H598.157ZM594.24 335.556L610.803 377.952H604.57L599.94 365.185H582.007L577.257 377.952H571.499L588.003 335.556H594.24Z" fill="#696A6C"/>
<path d="M629.98 373.2C630.609 373.2 631.405 373.15 632.355 373.05C633.305 372.954 634.313 372.716 635.384 372.337C636.451 371.962 637.513 371.421 638.559 370.708C639.609 369.991 640.547 369.025 641.38 367.8C642.213 366.571 642.897 365.037 643.43 363.196C643.959 361.354 644.23 359.129 644.23 356.516C644.23 353.983 643.98 351.716 643.488 349.716C642.993 347.72 642.184 346.016 641.051 344.612C639.926 343.208 638.472 342.137 636.688 341.404C634.909 340.67 632.709 340.304 630.097 340.304H620.597V373.2H629.98ZM629.505 335.558C636.034 335.558 641.063 337.22 644.584 340.545C648.109 343.866 649.868 348.937 649.868 355.746C649.868 359.308 649.476 362.462 648.68 365.212C647.893 367.966 646.663 370.283 645.001 372.162C643.338 374.041 641.222 375.475 638.647 376.466C636.076 377.454 633.026 377.95 629.505 377.95H614.959V335.558H629.505Z" fill="#696A6C"/>
<path d="M686.031 335.557V340.307H662.398V353.786H684.427V358.536H662.398V373.199H686.21V377.949H656.76V335.557H686.031Z" fill="#696A6C"/>
<path d="M714.177 354.793C715.365 354.597 716.402 354.21 717.294 353.635C718.185 353.06 718.898 352.289 719.431 351.322C719.969 350.351 720.231 349.093 720.231 347.551C720.231 345.414 719.64 343.672 718.448 342.326C717.265 340.981 715.344 340.306 712.694 340.306H698.677V355.089H710.44C711.744 355.089 712.99 354.993 714.177 354.793ZM712.99 335.556C717.027 335.556 720.181 336.547 722.456 338.526C724.735 340.506 725.873 343.214 725.873 346.66C725.873 349.235 725.29 351.489 724.123 353.426C722.952 355.368 721.081 356.693 718.51 357.406V357.526C719.735 357.76 720.735 358.16 721.51 358.71C722.281 359.268 722.894 359.931 723.348 360.701C723.806 361.472 724.144 362.335 724.356 363.285C724.577 364.235 724.744 365.222 724.86 366.251C724.944 367.285 725.002 368.331 725.04 369.401C725.081 370.468 725.181 371.518 725.34 372.547C725.498 373.576 725.723 374.556 726.023 375.485C726.319 376.414 726.765 377.239 727.356 377.951H721.065C720.669 377.514 720.402 376.922 720.265 376.168C720.123 375.418 720.031 374.576 719.994 373.643C719.956 372.714 719.915 371.718 719.877 370.647C719.835 369.576 719.719 368.531 719.519 367.501C719.36 366.472 719.165 365.489 718.927 364.56C718.69 363.631 718.31 362.818 717.798 362.126C717.281 361.435 716.61 360.881 715.781 360.464C714.952 360.047 713.84 359.839 712.456 359.839H698.677V377.951H693.04V335.556H712.99Z" fill="#696A6C"/>
<path d="M754.936 341.346C753.057 339.979 750.653 339.296 747.724 339.296C746.532 339.296 745.365 339.417 744.219 339.654C743.069 339.892 742.049 340.287 741.157 340.842C740.269 341.396 739.557 342.137 739.024 343.067C738.49 344 738.219 345.158 738.219 346.542C738.219 347.85 738.607 348.904 739.382 349.717C740.149 350.529 741.178 351.192 742.465 351.708C743.749 352.221 745.207 352.646 746.832 352.983C748.453 353.321 750.107 353.687 751.786 354.083C753.469 354.479 755.124 354.942 756.749 355.479C758.369 356.012 759.824 356.733 761.107 357.646C762.394 358.554 763.424 359.704 764.199 361.087C764.969 362.475 765.357 364.217 765.357 366.312C765.357 368.571 764.853 370.5 763.844 372.1C762.832 373.704 761.536 375.012 759.953 376.021C758.369 377.029 756.594 377.762 754.64 378.217C752.678 378.671 750.728 378.9 748.786 378.9C746.415 378.9 744.169 378.604 742.049 378.008C739.932 377.417 738.074 376.517 736.469 375.308C734.869 374.1 733.599 372.558 732.669 370.679C731.74 368.796 731.274 366.571 731.274 364H736.619C736.619 365.779 736.965 367.312 737.661 368.6C738.353 369.887 739.261 370.946 740.39 371.775C741.515 372.604 742.832 373.221 744.336 373.617C745.84 374.012 747.386 374.208 748.965 374.208C750.232 374.208 751.511 374.092 752.794 373.854C754.082 373.617 755.24 373.208 756.269 372.637C757.299 372.062 758.132 371.283 758.765 370.292C759.394 369.3 759.711 368.033 759.711 366.492C759.711 365.029 759.332 363.837 758.557 362.929C757.786 362.017 756.757 361.275 755.469 360.704C754.182 360.129 752.728 359.662 751.107 359.308C749.482 358.95 747.832 358.583 746.149 358.208C744.465 357.833 742.815 357.4 741.19 356.9C739.569 356.408 738.111 355.754 736.824 354.942C735.54 354.133 734.511 353.083 733.736 351.796C732.969 350.508 732.582 348.896 732.582 346.958C732.582 344.817 733.015 342.971 733.886 341.404C734.757 339.842 735.915 338.554 737.361 337.546C738.807 336.537 740.444 335.787 742.29 335.287C744.128 334.796 746.015 334.546 747.957 334.546C750.136 334.546 752.153 334.804 754.015 335.321C755.878 335.833 757.507 336.646 758.911 337.754C760.319 338.862 761.428 340.258 762.24 341.942C763.049 343.621 763.494 345.629 763.574 347.967H758.232C757.915 344.917 756.815 342.712 754.936 341.346Z" fill="#696A6C"/>
<path d="M777.82 335.557V353.786H800.145V335.557H805.787V377.949H800.145V358.536H777.82V377.949H772.178V335.557H777.82Z" fill="#696A6C"/>
<path d="M815.287 335.558H820.928V377.95H815.287V335.558Z" fill="#696A6C"/>
<path d="M847.107 355.864C850.315 355.901 852.661 355.251 854.145 353.901C855.628 352.56 856.374 350.618 856.374 348.085C856.374 345.551 855.628 343.622 854.145 342.297C852.661 340.968 850.315 340.305 847.107 340.305H836.065V355.864H847.107ZM849.007 335.555C853.282 335.555 856.52 336.655 858.715 338.851C860.911 341.047 862.011 344.126 862.011 348.085C862.011 352.043 860.911 355.13 858.715 357.347C856.52 359.564 853.282 360.651 849.007 360.614H836.065V377.951H830.424V335.555H849.007Z" fill="#696A6C"/>
<path d="M453.833 370.536L450.629 361.578H450.579L447.325 370.536H453.833ZM452.054 359.266L459.562 378.47H456.733L454.637 372.687H446.516L444.366 378.47H441.758L449.233 359.266H452.054Z" fill="#696A6C"/>
<path d="M464.132 359.267L474.245 374.838H474.299V359.267H476.72V378.467H473.924L463.89 363.059H463.84V378.467H461.42V359.267H464.132Z" fill="#696A6C"/>
<path d="M487.663 376.318C487.951 376.318 488.309 376.297 488.742 376.251C489.167 376.205 489.63 376.097 490.113 375.93C490.596 375.755 491.076 375.51 491.551 375.189C492.026 374.864 492.451 374.426 492.826 373.872C493.205 373.314 493.513 372.618 493.759 371.789C494.001 370.951 494.121 369.943 494.121 368.764C494.121 367.614 494.005 366.585 493.784 365.68C493.559 364.776 493.192 364.005 492.68 363.368C492.167 362.73 491.509 362.247 490.701 361.914C489.896 361.585 488.901 361.418 487.721 361.418H483.413V376.318H487.663ZM487.446 359.268C490.405 359.268 492.684 360.018 494.28 361.526C495.88 363.03 496.676 365.326 496.676 368.41C496.676 370.022 496.496 371.455 496.134 372.701C495.776 373.947 495.217 374.997 494.471 375.847C493.717 376.701 492.759 377.351 491.588 377.793C490.426 378.243 489.046 378.468 487.446 378.468H480.859V359.268H487.446Z" fill="#696A6C"/>
</g>
<defs>
<clipPath id="clip0_552_371">
<rect width="921" height="524" fill="white"/>
</clipPath>
</defs>
</svg>
